<?xml version="1.0" ?><!-- Uploaded to: SVG Repo, www.svgrepo.com, Generator: SVG Repo Mixer Tools -->
<svg fill="#000000" width="800px" height="800px" viewBox="0 0 32 32" xmlns="http://www.w3.org/2000/svg" id="Layer_1" data-name="Layer 1"><path d="M29.22,13.95h-.28v-2.07c0-4.75-5.76-8.61-12.84-8.61S3.26,7.14,3.26,11.88v2.07h-.48c-.84,0-1.52,.68-1.52,1.52v1.06c0,.84,.68,1.52,1.52,1.52h.48v2.07c0,4.74,5.76,8.6,12.84,8.6s12.84-3.86,12.84-8.6v-2.07h.28c.84,0,1.52-.68,1.52-1.52v-1.06c0-.84-.68-1.52-1.52-1.52ZM16.1,4.78c5.85,0,10.68,2.79,11.28,6.36H4.82c.6-3.57,5.43-6.36,11.28-6.36ZM4.76,12.63H27.44v1.32H4.76v-1.32Zm11.34,14.58c-5.85,0-10.68-2.79-11.28-6.35h12.49l1.8,3c.14,.23,.38,.36,.64,.36s.51-.14,.64-.36l1.8-3h5.17c-.6,3.56-5.43,6.35-11.28,6.35Zm11.34-7.85h-5.66c-.26,0-.51,.14-.64,.36l-1.38,2.29-1.38-2.29c-.14-.23-.38-.36-.64-.36H4.76v-1.32H27.44v1.32Zm1.78-2.82l-26.46-.02,.02-1.08h1.22s0,0,0,0H28.19s0,0,0,0h1.02s.02,.02,.02,.02l-.02,1.08Z"/></svg>